
<svg version="1.1" xmlns="http://www.w3.org/2000/svg" xmlns:xlink="http://www.w3.org/1999/xlink">
    <!-- Generator: Sketch 48.2 (47327) - http://www.bohemiancoding.com/sketch -->
    <desc>Created with Sketch.</desc>
    <defs></defs>
    <g id="Page-1" stroke="none" stroke-width="1" fill="none" fill-rule="evenodd">
        <g id="Group-2" transform="translate(-6.000000, 0.000000)" fill="#000000">
            <g id="noun_Airplane-Crash_777692_000000" transform="translate(74.000000, 0.000000)" fill-rule="nonzero">
                <polygon id="Shape" points="23.8993852 105.470123 27.301995 119.435187 0.231381194 127.938995 21.9332064 146 37.6575427 146 20.9501171 131.958234 39.1703797 126.190166 32.141036 96.8180225 53.9905793 111.542446 67.4507538 78.0666905 73.8026318 117.535509 92.0967534 105.697676 89.2264381 126.721974 112.815489 126.721974 92.3998302 142.663419 95.878846 146 123.400255 146 114.781668 137.879707 142 116.627856 100.717887 116.627856 105.106133 85.4327374 81.2878641 100.763115 71.5333762 40.9500983 50.6669223 92.5661184 15.3814396 71.7820203"></polygon>
                <polygon id="Shape" points="147.095893 54 182.763061 54.6070094 186 90.2700849 166.132239 112 151.988056 99.051317 166.43388 83.3787432 155.374549 73.1590519 141.149252 88.8290752 127 75.8089794"></polygon>
                <path d="M148.050429,47 L190.814573,47.6041987 L195,89.882877 C195,90.9389555 194.23878,91.8401763 193.249451,91.9950339 C192.108903,92.0686548 191.273355,91.3146757 191.117011,90.3347568 L187.390366,51.3715554 L147.901773,50.7673567 C146.909881,50.7673567 146.000005,49.8635973 146.000005,48.8100575 C145.997442,47.7514404 146.907318,47 148.050429,47 Z" id="Shape"></path>
                <path d="M94.5719586,5.19435611 C94.3444309,4.22073611 95.0270141,3.24711611 96.0138197,3.0226286 C96.8472359,2.87381103 97.836598,3.47160362 97.9848745,4.44522362 C98.7441524,7.73938869 102.008792,9.9111162 105.270875,9.31332361 C105.805181,9.23765367 106.260237,9.0888361 106.712736,8.86434859 C106.94282,8.71300869 107.397876,8.71300869 107.702098,8.78867864 L114.377097,10.9604062 C114.834709,10.9604062 115.062237,11.1848937 115.21307,11.5607211 C117.109986,14.4059111 120.906376,15.3795311 123.787541,13.5811087 C124.165902,13.2809512 124.620958,13.0564637 124.92518,12.6831586 C125.61032,12.0071738 126.747958,12.0071738 127.430542,12.6831586 C128.189819,13.3566212 128.189819,14.4790587 127.430542,15.2281912 C124.015069,18.5223563 118.776818,18.8981837 114.908847,16.2018112 C114.37454,16.4262987 111.26329,26.3869862 111.26329,26.3869862 L106.784318,40.5397888 C106.405957,41.6622264 105.265762,42.2625413 104.281513,41.8892363 C103.143874,41.5890788 102.532873,40.4666412 102.839652,39.3416813 L107.392763,25.1888787 L105.265762,24.4397462 L94.4160126,33.9514587 C93.58004,34.6249212 92.2890119,34.5492513 91.4555957,33.7269712 C90.770456,32.9778387 90.8471507,31.6309136 91.7598181,30.9574511 L101.850289,22.0460535 L104.506484,13.3591435 C99.5801251,13.0564637 95.4079313,9.76229864 94.5719586,5.19435611 Z" id="Shape"></path>
                <path d="M118,4.53954172 C118,2.03514878 116.043937,0 113.539543,0 C111.037786,0 109,2.03514878 109,4.53954172 C109,7.04393465 111.035149,8.99999734 113.539543,8.99999734 C116.043937,9.00263354 118,7.04657085 118,4.53954172 Z" id="Shape"></path>
            </g>
            <g id="noun_biking_1742525_000000" transform="translate(67.588756, 72.991084) scale(-1, 1) rotate(-20.000000) translate(-67.588756, -72.991084) translate(14.588756, 20.991084)">
                <path d="M61.7286925,23.9271804 C61.6500973,21.3071857 62.577521,18.7345403 64.306616,16.7616527 C66.2714967,14.5362356 69.0852059,13.2578044 72.0403865,13.2578044 C72.4962388,13.2578044 72.9363721,13.2578044 73.3450673,13.2578044 C74.4139624,13.2578044 75.4199813,13.6839481 76.1744955,14.4257539 C76.9132907,15.1833427 77.3377049,16.1934611 77.3377049,17.266712 L77.3377049,23.6273015 L63.3949114,37.6269116 L62.8447448,33.2076435 L53.994922,41.4464219 C53.3504411,42.0461797 52.5644889,42.3776249 51.7470985,42.4407573 C51.5584699,42.4723235 51.3698414,42.4881066 51.1654938,42.4881066 L38.5431001,42.4881066 L33.8273864,53.7256741 L44.1076423,56.5034998 L64.290897,44.8082223 L63.7250113,40.3100387 L77.3377049,26.6576567 L77.3377049,44.4294279 C77.3377049,45.2027998 77.039043,45.9446056 76.4888764,46.4970141 C76.3159669,46.6706282 76.1273384,46.8126761 75.9072717,46.9389409 L77.5734906,46.9389409 C78.4851952,46.9389409 79.2239904,47.6807466 79.2239904,48.5961664 C79.2239904,49.5115863 78.4851952,50.253392 77.5734906,50.253392 L75.1213195,50.253392 L72.2918912,56.8822942 L99.029988,56.8822942 C99.9416926,56.8822942 100.680488,57.6240999 100.680488,58.5395198 C100.680488,59.4549396 99.9416926,60.1967453 99.029988,60.1967453 L97.8824976,60.1967453 L95.4146075,65.9891432 C101.497878,69.3825098 105.631987,75.9167134 105.631987,83.3979031 C105.631987,94.3671579 96.7507264,103.28461 85.8259896,103.28461 C75.4514194,103.28461 66.9316966,95.2510115 66.0828682,85.0551286 L63.4735066,85.0551286 C62.7818686,86.9806669 60.9584593,88.3695797 58.80495,88.3695797 C56.0698361,88.3695797 53.8534506,86.1441625 53.8534506,83.3979031 C53.8534506,83.082241 53.8848887,82.7823621 53.9320458,82.4982663 L51.5427509,78.3473109 L31.8153485,58.5237367 L28.8130108,65.6892643 C35.2263814,68.9721492 39.6119952,75.6799669 39.6119952,83.3979031 C39.6119952,94.3671579 30.7307344,103.28461 19.8059976,103.28461 C8.88126083,103.28461 0,94.3671579 0,83.3979031 C0,72.4286482 8.88126083,63.5111964 19.8059976,63.5111964 C21.8809116,63.5111964 23.8772304,63.8268584 25.7477969,64.4266163 L35.3364148,41.5726867 C34.8962815,41.1938923 34.5347434,40.7046162 34.3146768,40.1364246 C33.5758816,39.9785936 33.009996,39.3157034 33.009996,38.5265483 C33.009996,37.6584778 33.6544769,36.9640214 34.4875863,36.8693228 C35.1320672,35.7013733 36.3738718,34.9122183 37.8043049,34.9122183 L49.9236892,34.9122183 L61.7286925,23.9271804 Z M24.5217113,67.3464898 C23.028402,66.904563 21.4407784,66.6678165 19.8059976,66.6678165 C10.6103559,66.6678165 3.14380914,74.1647893 3.14380914,83.3979031 C3.14380914,92.6310169 10.6103559,100.12799 19.8059976,100.12799 C29.0016393,100.12799 36.4681861,92.6310169 36.4681861,83.3979031 C36.4681861,76.9899643 32.8685246,71.4027467 27.5869252,68.6091379 L21.330745,83.5241679 C20.969207,84.3606722 19.9946261,84.7552497 19.1615167,84.4080215 C18.3284073,84.0450102 17.9354312,83.0664579 18.2812502,82.2299536 L24.5217113,67.3464898 Z M69.2423964,85.0551286 C70.0755058,93.5148705 77.1805144,100.12799 85.8259896,100.12799 C95.0216313,100.12799 102.488178,92.6310169 102.488178,83.3979031 C102.488178,77.2109277 99.1400213,71.8131073 94.1570838,68.9090168 L87.8851846,83.6346496 C87.8537465,83.7135651 87.8065893,83.8082637 87.7594322,83.8871792 C87.5550846,84.5658525 86.9263228,85.0551286 86.1718086,85.0551286 L69.2423964,85.0551286 Z M70.8771771,70.3452789 L67.8591203,67.2991405 L62.4360496,80.0203195 C62.8919019,80.5095957 63.2377209,81.0935704 63.4735066,81.7406775 L66.0828682,81.7406775 C66.4444062,77.4003249 68.1892203,73.4545497 70.8771771,70.3452789 Z M73.1092816,72.5864792 C70.9872104,75.1117753 69.5882154,78.2683954 69.2423964,81.7406775 L82.2263281,81.7406775 L73.1092816,72.5864792 Z M91.1547461,67.5516702 C89.4885272,66.9834785 87.696556,66.6678165 85.8259896,66.6678165 C81.9276663,66.6678165 78.3280048,68.0251632 75.4828575,70.2821465 L85.637361,80.4780295 L91.1547461,67.5516702 Z M50.6782034,61.6961399 L59.8581261,77.6370714 L65.0139731,65.5472164 L50.6782034,61.6961399 Z M94.2985552,60.1967453 L70.8928962,60.1967453 L69.2581154,64.0320387 L73.250753,68.0409463 C76.677505,65.2157713 81.0473997,63.5111964 85.8259896,63.5111964 C88.1366893,63.5111964 90.3373557,63.9057739 92.3965507,64.6317966 L94.2985552,60.1967453 Z M45.1608183,67.2517912 L42.1427616,61.9960188 C41.6554711,61.1437313 41.5297188,60.1809622 41.7183473,59.2813255 L35.5879195,57.639883 L45.1608183,67.2517912 Z M54.4193363,59.2655424 L66.3186539,62.4695118 L71.537377,50.253392 L69.9811915,50.253392 L54.4193363,59.2655424 Z M86.7691323,20.3917658 C86.7691323,18.9397206 86.2032467,17.5508078 85.1815087,16.5249062 C84.1597707,15.4990047 82.7764947,14.9308131 81.3303425,14.9308131 C81.2203092,14.9308131 81.0945568,14.9308131 81.0002426,14.9308131 C80.5286712,14.9308131 80.0728189,15.1202103 79.7427189,15.4516554 C79.4126189,15.7831005 79.2239904,16.2408104 79.2239904,16.7143034 C79.2239904,21.4492336 79.2239904,34.4071591 79.2239904,39.4261851 C79.2239904,40.5467852 80.119976,41.4464219 81.2360282,41.4464219 C82.3835186,41.4464219 83.8296708,41.4464219 84.945723,41.4464219 C85.4330134,41.4464219 85.8888658,41.2570247 86.2346848,40.9097965 C86.5805038,40.5625683 86.7691323,40.1048584 86.7691323,39.6155823 C86.7691323,35.7013733 86.7691323,26.389344 86.7691323,20.3917658 Z M69.5410582,0.236746508 C70.0597867,0.0789155025 70.6256724,0 71.2072771,0 C74.5868719,0 77.3377049,2.76204259 77.3377049,6.1554092 C77.3377049,9.5487758 74.5868719,12.3108184 71.2072771,12.3108184 C67.8276822,12.3108184 65.0768492,9.5487758 65.0768492,6.1554092 C65.0768492,5.31890487 65.2497587,4.51396674 65.5484206,3.78794412 L59.842407,3.78794412 C59.6066213,3.78794412 59.4179928,3.61433002 59.3865547,3.37758351 C59.3551166,3.1566201 59.496588,2.93565669 59.7323737,2.87252429 C63.630697,1.81505656 69.5410582,0.236746508 69.5410582,0.236746508 Z" id="Shape"></path>
            </g>
        </g>
    </g>
</svg>