
<svg width="25px" height="25px" viewBox="0 0 25 25" version="1.1" xmlns="http://www.w3.org/2000/svg" xmlns:xlink="http://www.w3.org/1999/xlink">
    <!-- Generator: Sketch 43.2 (39069) - http://www.bohemiancoding.com/sketch -->
    <desc>Created with Sketch.</desc>
    <defs></defs>
    <g id="Page-1" stroke="none" stroke-width="1" fill="none" fill-rule="evenodd">
        <g id="noun_Time_972375_000000" fill-rule="nonzero" fill="#000000">
            <path d="M12.5,25 C5.6076087,25 0,19.3923913 0,12.5 C0,5.6076087 5.6076087,0 12.5,0 C19.3923913,0 25,5.6076087 25,12.5 C25,19.3923913 19.3923913,25 12.5,25 Z M12.5,1.08695652 C6.20652174,1.08695652 1.08695652,6.20652174 1.08695652,12.5 C1.08695652,18.7934783 6.20652174,23.9130435 12.5,23.9130435 C18.7934783,23.9130435 23.9130435,18.7934783 23.9130435,12.5 C23.9130435,6.20652174 18.7934783,1.08695652 12.5,1.08695652 Z" id="Shape"></path>
            <polygon id="Shape" points="16.3532609 15.3521739 12.2282609 12.9706522 11.9565217 12.5 11.9565217 4.34782609 13.0434783 4.34782609 13.0434783 12.1858696 16.8967391 14.4119565"></polygon>
        </g>
    </g>
</svg>