<svg xmlns="http://www.w3.org/2000/svg" xmlns:xlink="http://www.w3.org/1999/xlink" version="1.1" x="0px" y="0px" viewBox="0 0 24 24" style="enable-background:new 0 0 24 24;" xml:space="preserve"><g><path d="M11.5,23C5.159,23,0,17.841,0,11.5C0,5.159,5.159,0,11.5,0C17.841,0,23,5.159,23,11.5C23,17.841,17.841,23,11.5,23z    M11.5,1C5.71,1,1,5.71,1,11.5C1,17.29,5.71,22,11.5,22C17.29,22,22,17.29,22,11.5C22,5.71,17.29,1,11.5,1z"></path><polygon points="15.045,14.124 11.25,11.933 11,11.5 11,4 12,4 12,11.211 15.545,13.259  "></polygon></g></svg>