<svg xmlns="http://www.w3.org/2000/svg" xmlns:xlink="http://www.w3.org/1999/xlink" xmlns:serif="http://www.serif.com/" viewBox="0 0 8 8" version="1.1" xml:space="preserve" style="" x="0px" y="0px" fill-rule="evenodd" clip-rule="evenodd" stroke-linejoin="round" stroke-miterlimit="1.41421"><path d="M5.345,3.852l-0.04,-0.147c-0.025,-0.096 0.032,-0.195 0.128,-0.221c0.095,-0.025 0.194,0.032 0.22,0.128l0.036,0.133c0.068,-0.011 0.138,-0.017 0.21,-0.017c0.718,0 1.301,0.583 1.301,1.301c0,0.718 -0.583,1.301 -1.301,1.301c-0.718,0 -1.301,-0.583 -1.301,-1.301c0,-0.52 0.306,-0.969 0.747,-1.177Zm-2.26,1.357c-0.088,0.633 -0.635,1.121 -1.296,1.121c-0.722,0 -1.309,-0.583 -1.309,-1.301c0,-0.718 0.587,-1.301 1.309,-1.301c0.661,0 1.208,0.488 1.296,1.121l0.095,0c0.099,0 0.18,0.081 0.18,0.18c0,0.099 -0.081,0.18 -0.18,0.18l-0.095,0Zm2.346,-1.036c-0.303,0.166 -0.508,0.487 -0.508,0.856c0,0.539 0.438,0.976 0.976,0.976c0.539,0 0.976,-0.437 0.976,-0.976c0,-0.538 -0.437,-0.976 -0.976,-0.976c-0.042,0 -0.084,0.003 -0.125,0.008l0.257,0.962c0.026,0.096 -0.031,0.195 -0.127,0.221c-0.096,0.026 -0.195,-0.031 -0.22,-0.127l-0.253,-0.944Zm-2.677,0.676c-0.085,-0.453 -0.485,-0.796 -0.965,-0.796c-0.542,0 -0.982,0.438 -0.982,0.976c0,0.539 0.44,0.976 0.982,0.976c0.48,0 0.88,-0.343 0.965,-0.796l-1.014,0c-0.099,0 -0.18,-0.081 -0.18,-0.18c0,-0.099 0.081,-0.18 0.18,-0.18l1.014,0Zm-0.705,-1.674c-0.001,-0.083 0.042,-0.165 0.12,-0.21l1.779,-1.027c0.106,-0.061 0.24,-0.032 0.312,0.064c0.023,0.027 0.041,0.06 0.051,0.096l0.233,0.87l0.871,0c0.133,0 0.241,0.108 0.241,0.241c0,0.133 -0.108,0.241 -0.241,0.241l-1.056,0c-0.115,0 -0.212,-0.081 -0.235,-0.19c-0.002,-0.006 -0.004,-0.012 -0.006,-0.018l-0.197,-0.735l-1.156,0.668l1.625,0.939c0.051,0.029 0.087,0.074 0.106,0.126c0.029,0.067 0.027,0.146 -0.013,0.215l-0.732,1.269c-0.067,0.115 -0.214,0.154 -0.328,0.088c-0.115,-0.067 -0.154,-0.213 -0.088,-0.328l0.617,-1.069l-1.783,-1.029c-0.078,-0.045 -0.121,-0.127 -0.12,-0.211Zm2.691,-1.825c0.232,0 0.42,0.188 0.42,0.42c0,0.232 -0.188,0.42 -0.42,0.42c-0.232,0 -0.42,-0.188 -0.42,-0.42c0,-0.232 0.188,-0.42 0.42,-0.42Z"></path></svg>