
<svg width="30px" height="31px" viewBox="0 0 30 31" version="1.1" xmlns="http://www.w3.org/2000/svg" xmlns:xlink="http://www.w3.org/1999/xlink">
    <!-- Generator: Sketch 43.2 (39069) - http://www.bohemiancoding.com/sketch -->
    <desc>Created with Sketch.</desc>
    <defs></defs>
    <g id="Page-1" stroke="none" stroke-width="1" fill="none" fill-rule="evenodd">
        <g id="noun_Bicycle-Wheel_44321_000000-(1)" fill-rule="nonzero" fill="#000000">
            <path d="M23.2535714,7.59824675 C23.1751299,7.54668831 23.0962987,7.49551948 23.0171429,7.44448052 C22.9380519,7.39344156 22.8584416,7.34279221 22.7798052,7.29097403 C22.4584416,7.07909091 22.147013,6.85214286 21.8501299,6.60701299 C21.5140909,6.32961039 21.2164286,6.02162338 20.9090909,5.71435065 C19.6103896,4.22084416 18.7012987,2.40266234 16.898961,1.50831169 C16.475974,1.30876623 16.0412338,1.15064935 15.597013,1.03038961 C14.2644805,0.675519481 12.8472078,0.661688312 11.3401299,1.16785714 C10.7414935,1.32844156 10.1542208,1.52766234 9.58253247,1.76448052 C7.86746753,2.47487013 6.29246753,3.52331169 4.94025974,4.87551948 C2.23590909,7.57980519 0.746558442,11.1754545 0.746558442,15 C0.746558442,18.8245455 2.23597403,22.4201948 4.94032468,25.1246104 C7.64467532,27.829026 11.2403896,29.3183766 15.0649351,29.3183766 C18.8894805,29.3183766 22.4851299,27.828961 25.1895455,25.1246104 C26.5417532,23.7724026 27.5901948,22.1974026 28.3005844,20.4824026 C28.5374026,19.9107143 28.7364286,19.3235065 28.8892208,18.7272727 C29.2206494,17.6033766 29.2944156,16.4155195 29.1366883,15.255974 C28.9804545,14.1072727 28.605,12.9938312 28.0772727,11.9635714 C27.8442857,11.5086364 27.598961,11.0522078 27.2736364,10.6557792 C26.8962338,10.1959091 26.4381818,9.85162338 25.9733117,9.48831169 C25.9085065,9.43766234 25.8434416,9.38720779 25.7783766,9.33681818 C25.7132468,9.28649351 25.6481169,9.23616883 25.582987,9.18584416 C24.9350649,8.7012987 24.2207792,8.24675325 23.5512338,7.79383117 C23.4522727,7.72863636 23.3529221,7.66350649 23.2535714,7.59824675 Z M27.5443506,14.558961 C25.0649351,14.5454545 22.5974026,14.4155844 20.1948052,14.1558442 C20.487013,13.9826623 20.7755844,13.7987013 21.0627273,13.6096104 C21.3498052,13.4205195 21.6502597,13.2272078 21.9480519,13.0519481 C23.1335714,12.3543506 24.1986364,11.5337013 25.5184416,11.1046104 C25.7830519,11.0185714 25.9902597,11.2337662 26.1871429,11.5576623 C26.384026,11.8815584 26.5667532,12.3022078 26.7698052,12.5914286 C27.1085065,13.2119481 27.3702597,13.8688961 27.5443506,14.558961 Z M25.3805195,10.6484416 C24.1558442,11.4285714 22.987013,12.3376623 21.7244156,13.0442857 C21.4069481,13.2248701 21.0840909,13.3945455 20.753961,13.5488312 C20.4238961,13.7031169 20.0865584,13.842013 19.7402597,13.961039 C19.1558442,14.1558442 18.3766234,13.7662338 17.6623377,13.7012987 C17.7597403,13.4090909 17.8409091,13.0519481 17.9464286,12.7435065 C18.0519481,12.4350649 18.1818182,12.1753247 18.3758442,12.0787013 C20.1081818,11.2122078 22.0450649,10.962013 23.7688312,10.1642857 C23.8765584,10.1144156 23.9834416,10.0624026 24.0894156,10.0080519 C24.2207792,9.93506494 24.3506494,9.80519481 24.5774026,9.96071429 C24.6344156,10.0026623 24.6907792,10.0453247 24.7464286,10.0887662 C24.9691558,10.2625974 25.180974,10.4487662 25.3805195,10.6484416 Z M17.0799351,14.4743506 C16.6883117,14.3506494 16.6883117,14.0909091 16.6233766,13.7012987 C16.8181818,13.8311688 17.1428571,13.7012987 17.3229221,13.8396104 L17.0799351,14.4743506 Z M17.2158442,14.8316883 L17.8499351,15.275 L17.2584416,15.6643506 L17.0432468,15.2814286 L17.2158442,14.8316883 Z M16.5736364,13.4633117 C16.038961,12.4025974 17.2077922,12.3376623 17.987013,12.0779221 C17.7922078,12.5974026 17.5974026,13.1168831 17.4017532,13.6335714 L16.5736364,13.4633117 Z M16.7798052,16.3111039 C17.2077922,15.8441558 17.4025974,16.2337662 17.5974026,16.6883117 C17.3376623,16.6233766 17.012987,16.8181818 16.7737662,16.7394156 L16.7798052,16.3111039 Z M17.6972727,16.9348052 C18.0519481,17.5974026 18.3116883,18.2467532 18.7012987,18.8311688 C17.8571429,18.3766234 16.4285714,18.2467532 16.7680519,16.9945455 L17.6972727,16.9348052 Z M17.3855195,15.8905195 C18.1818182,14.9350649 19.0909091,16.2337662 19.8701299,16.6233766 C19.2207792,16.6233766 18.5064935,16.6233766 17.8263636,16.679026 L17.3855195,15.8905195 Z M18.0435065,15.151039 C17.4025974,14.9350649 17.012987,14.2857143 17.6623377,13.961039 C18.1818182,13.7662338 18.8961039,14.2207792 19.5277922,14.2449351 L18.0435065,15.151039 Z M24.2018182,9.70974026 C24.102987,9.76428571 24.0033766,9.81727273 23.9025974,9.86928571 C23.8018182,9.9212987 23.6999351,9.97233766 23.5974026,10.0219481 C21.956039,10.8161039 20.1731818,11.2265584 18.4415584,11.6883766 C18.961039,10.1299351 19.6753247,8.63642857 20.3246753,7.14292208 C20.961039,7.68837662 21.6292208,8.17019481 22.3314935,8.59948052 C22.4318182,8.66077922 22.5327922,8.72103896 22.634026,8.78077922 C23.0519481,9.09090909 23.5064935,9.28571429 23.9648701,9.56435065 C24.0444156,9.61233766 24.1235065,9.66071429 24.2018182,9.70974026 Z M20.1951948,6.97714286 C19.4155844,8.50649351 19.025974,10.2597403 17.9864286,11.7538961 C17.8571429,11.9156494 17.5974026,12.0292208 17.2970779,12.1185065 C16.9967532,12.2077922 16.6558442,12.2727273 16.3636364,12.3376623 C16.2987013,11.9805195 16.1850649,11.5909091 16.112013,11.2256494 C16.038961,10.8603896 16.0064935,10.5194805 16.1038312,10.2598701 C16.7532468,8.50649351 18.1818182,7.27272727 19.2540909,5.86214286 C19.5644805,6.24415584 19.8774675,6.61831169 20.1951948,6.97714286 Z M15.2461039,12.7331818 C14.9350649,12.9220779 14.6753247,12.7922078 14.4155844,12.5974026 C14.5454545,12.4025974 14.6753247,12.2077922 14.7731169,12.0453896 L15.2461039,12.7331818 Z M14.8981818,11.8537662 C15.1948052,11.4285714 15.5194805,10.9090909 15.8441558,10.4545455 C15.7792208,11.2987013 16.6883117,12.5324675 15.4501948,12.6573377 L14.8981818,11.8537662 Z M14.1962987,12.4672727 C12.9220779,12.2077922 13.5064935,10.9090909 13.4415584,10 C13.8311688,10.5844156 14.2207792,11.1688312 14.6187013,11.8157792 L14.1962987,12.4672727 Z M14.0717532,12.660974 C13.961039,12.987013 13.5714286,13.1168831 13.3766234,12.9220779 C13.1818182,12.8571429 13.4415584,12.5324675 13.3637662,12.2702597 L14.0717532,12.660974 Z M14.2044805,17.5827273 L14.764026,18.3840909 L13.5614286,20.1101299 L13.3778571,17.970974 L14.2044805,17.5827273 Z M13.3542208,17.6951299 L13.2824675,16.8616883 C13.7012987,16.7532468 13.8961039,17.0779221 14.0533117,17.3664935 L13.3542208,17.6951299 Z M14.4414935,17.4704545 C14.7402597,17.2727273 15.1298701,17.2077922 15.2597403,17.5324675 C15.3246753,17.7272727 15,17.9220779 14.9218182,18.1568182 L14.4414935,17.4704545 Z M15.5901948,17.6332468 L16.4707143,18.0481169 L16.3092208,20.1448052 L15.0804545,18.3838961 L15.5901948,17.6332468 Z M15.7325974,17.4175974 C15.8441558,17.0779221 16.2337662,16.8831169 16.4285714,17.0779221 C16.5584416,17.2077922 16.4935065,17.5324675 16.4853247,17.7733766 L15.7325974,17.4175974 Z M15.0342208,16.559026 C14.1932468,16.5570779 13.496039,15.8592208 13.4781818,14.9995455 C13.4529221,14.1449351 14.0783117,13.4834416 14.8636364,13.5462338 C15.648961,13.609026 16.3430519,14.308961 16.4155844,15.1090909 C16.4880519,15.9091558 15.8662987,16.5674675 15.0342208,16.559026 Z M15.9321429,13.332013 L15.6014935,12.8717532 L16.1955195,12.6600649 L16.3355844,13.4142857 L15.9321429,13.332013 Z M19.0856494,5.64123377 C17.987013,6.94805195 16.9480519,8.37662338 15.974026,9.80519481 C15.6535714,7.43357143 15.6493506,5 15.6493506,2.53246753 C16.7532468,2.92207792 17.5974026,3.7012987 18.3263636,4.63538961 C18.5846104,4.9611039 18.8370779,5.29831169 19.0856494,5.64123377 Z M14.792013,2.34772727 C15,2.4025974 15.3246753,2.4025974 15.3246753,2.46753247 C15.3571429,2.88961039 15.3957143,3.31123377 15.4163636,3.7338961 C15.5194805,5.84415584 15.6493506,7.98701299 15.6493506,10.0649351 C15.6493506,10.3246753 15.5032468,10.5844156 15.3165584,10.8441558 C15.1298701,11.1038961 14.9025974,11.3636364 14.7402597,11.6233766 C14.3506494,10.9090909 13.6363636,10.3246753 13.5714286,9.61038961 C13.3766234,7.14285714 13.8311688,4.74025974 14.1651948,2.2637013 C14.3746104,2.28285714 14.5837662,2.31019481 14.792013,2.34772727 Z M13.9303896,2.24714286 C13.5714286,4.61038961 13.4415584,6.94805195 13.2467532,9.28571429 C12.0886364,7.29396104 10.4545455,5.32467532 9.61038961,3.31168831 C10,2.98701299 10.7792208,2.72727273 11.666039,2.50383117 C12.4236364,2.30597403 13.1783117,2.22149351 13.9303896,2.24714286 Z M9.21655844,3.4425974 C9.21655844,3.4425974 9.49428571,3.81396104 9.87922078,4.3925974 C11.1038961,6.23376623 12.012987,7.66233766 13.1168831,9.67532468 C13.4244156,10.2361039 13.2467532,11.1038961 13.1168831,11.8831169 C12.4675325,11.4285714 11.5584416,11.3636364 11.1038961,10.6493506 C10.4545455,9.67532468 10.0649351,8.57142857 9.55376623,7.4925974 C9.16344156,6.65818182 8.77181818,5.82350649 8.47818182,5.19746753 C8.18454545,4.57142857 7.9887013,4.15415584 7.9887013,4.15415584 C8.3837013,3.89551948 8.79331169,3.65766234 9.21655844,3.4425974 Z M12.475,15.3637013 L11.8424026,14.9220779 L12.5165584,14.4419481 L12.7083117,14.8469481 L12.475,15.3637013 Z M12.9467532,16.0087662 L12.9973377,16.5766883 L12.2271429,16.5111688 L12.5807143,15.7533117 L12.9467532,16.0087662 Z M11.6155844,14.763961 L9.88993506,13.5614286 L12.0134416,13.376039 L12.4036364,14.2033117 L11.6155844,14.763961 Z M11.616039,15.0806494 L12.3648701,15.6027273 L11.9512987,16.4876623 L9.85519481,16.3092208 L11.616039,15.0806494 Z M12.1097403,16.7618831 L13.0200649,16.8394156 L13.1035714,17.8127273 L11.1990909,18.7062338 L12.1097403,16.7618831 Z M13.0532468,13.7318831 L12.6115584,14.0527922 L12.2807143,13.3529221 L13.0758442,13.2914935 L13.0532468,13.7318831 Z M12.1627273,13.1023377 C11.8181818,12.4675325 11.5584416,11.8181818 11.2987013,11.1688312 C12.012987,11.8181818 13.4415584,11.8181818 13.0884416,13.032987 L12.1627273,13.1023377 Z M7.77019481,4.3 C7.77019481,4.3 7.95668831,4.69746753 8.23636364,5.29363636 C8.51603896,5.88980519 8.88896104,6.68474026 9.26162338,7.47967532 C9.74025974,8.50649351 10.1948052,9.54545455 10.7142857,10.5844156 C10.3246753,10.5844156 10.0649351,10.2597403 9.75681818,10.1929221 C9.16142857,9.91363636 8.36532468,9.54077922 7.56922078,9.16792208 C5.97701299,8.42220779 4.38480519,7.67655844 4.38480519,7.67655844 C5.29512987,6.35324675 6.44435065,5.20675325 7.77019481,4.3 Z M4.23818182,7.89467532 C4.23818182,7.89467532 5.91012987,8.67772727 7.58214286,9.46077922 C8.41811688,9.85233766 9.25415584,10.2438312 9.88064935,10.5374026 C11.1038961,10.7792208 11.4285714,12.0779221 11.8955844,13.1253896 L9.55675325,13.3292857 L3.52123377,9.12409091 C3.73785714,8.70019481 3.97779221,8.29012987 4.23818182,7.89467532 Z M3.40428571,9.35915584 L9.15227273,13.364026 L2.15162338,13.9647403 C2.28181818,12.3253896 2.71844156,10.7711039 3.40428571,9.35915584 Z M2.11019481,15 C2.11019481,14.7403896 2.11876623,14.4827922 2.1338961,14.2269481 L9.48538961,13.5961039 L11.3888961,14.9223377 L9.45064935,16.2746753 L2.12649351,15.6511039 C2.11577922,15.4354545 2.11019481,15.2183766 2.11019481,15 Z M2.14279221,15.9132468 L9.11766234,16.5070779 L3.35162338,20.5301948 C2.67967532,19.1126623 2.25772727,17.5547403 2.14279221,15.9132468 Z M3.46681818,20.7665584 L9.52220779,16.5415584 L11.8338961,16.7383766 L10.8315584,18.8785714 L4.17103896,22.0033766 C3.91441558,21.6055844 3.67948052,21.1925325 3.46681818,20.7665584 Z M4.31545455,22.2225325 L10.6594156,19.2462987 L7.66961039,25.6301299 C6.35272727,24.7112338 5.21344156,23.5547403 4.31545455,22.2225325 Z M7.88675325,25.7787662 L11.0268831,19.0738961 L13.1272078,18.0885065 L13.3292857,20.4432468 L9.10824675,26.5015584 C8.68707792,26.2825325 8.27941558,26.0411039 7.88675325,25.7787662 Z M9.34227273,26.62 L13.364026,20.8477922 L13.9698701,27.9080519 C12.3207792,27.7692857 10.7588312,27.3204545 9.34227273,26.62 Z M15.0649351,27.9547403 C14.7851299,27.9547403 14.5076623,27.9448052 14.2322078,27.9272078 L13.5961688,20.5145455 L14.9224026,18.611039 L16.2748052,20.5493506 L15.6454545,27.9411039 C15.4529221,27.9496104 15.2595455,27.9547403 15.0649351,27.9547403 Z M15.9073377,27.9266234 L16.5070779,20.8824026 L20.5802597,26.7202597 C19.1463636,27.3977922 17.5690909,27.8194156 15.9073377,27.9266234 Z M20.8169481,26.6053896 L16.5416234,20.4777922 L16.7206494,18.1657143 C17.7272727,18.6363636 19.025974,18.8961039 19.3723377,20.2219481 C19.6694805,20.8542208 20.0648701,21.6970779 20.4602597,22.5398701 C21.2511039,24.2255844 22.0419481,25.9112338 22.0419481,25.9112338 C21.6477922,26.1641558 21.2385714,26.3955195 20.8169481,26.6053896 Z M22.2611039,25.7668831 C22.2611039,25.7668831 21.5074026,24.1603247 20.7537013,22.5538312 C20.3768831,21.7505844 20,20.9472727 19.717013,20.3447403 C19.5454545,20 19.4155844,19.6753247 19.2857143,19.3506494 C20.3246753,19.8701299 21.4285714,20.3246753 22.4794156,20.8550649 C23.2881169,21.2336364 24.0964286,21.6122078 24.7027273,21.8961688 C25.308961,22.1801299 25.7131818,22.3694156 25.7131818,22.3694156 C24.7853247,23.7058442 23.6131169,24.8602597 22.2611039,25.7668831 Z M25.861039,22.1518182 C25.861039,22.1518182 25.4368182,21.9531169 24.8005195,21.6551299 C24.1642208,21.3571429 23.3158442,20.9598052 22.4645455,20.5624026 C21.2987013,20.0649351 20.0649351,19.6753247 19.0909091,18.8961039 C18.5714286,18.4415584 18.3766234,17.5974026 17.987013,16.9480519 C18.7012987,16.8831169 19.5454545,16.6883117 20.1298701,16.8831169 C22.1428571,17.7272727 23.8311688,19.0909091 25.6153247,20.2749351 C26.1909091,20.6753247 26.5740909,20.9423377 26.5740909,20.9423377 C26.3579221,21.3592208 26.1196104,21.7627922 25.861039,22.1518182 Z M26.6922078,20.7080519 C24.7402597,19.3506494 22.6623377,18.0519481 20.5844156,16.8181818 C22.987013,16.6883117 25.3896104,16.4285714 27.7922078,16.2337662 C27.7272727,17.012987 27.7272727,17.7922078 27.5115584,18.4766883 C27.3261688,19.2403896 27.0450649,19.9915584 26.6922078,20.7080519 Z M20.2383766,16.581039 C19.5454545,16.1688312 18.961039,15.7142857 18.2467532,15.3246753 C18.8311688,15 19.3506494,14.3506494 19.9350649,14.4155844 C22.4675325,14.5454545 25,14.4805195 27.5974026,14.9350649 C27.7272727,14.9350649 27.7922078,15.8441558 27.6623377,15.8441558 C25.6493506,16.4935065 23.5064935,16.3636364 21.3651299,16.5314935 C20.6861039,16.5633117 20.2383766,16.581039 20.2383766,16.581039 Z" id="Shape"></path>
            <path d="M23.8681818,6.95863636 C21.5584416,5.64935065 20.4545455,3.11688312 18.3766234,1.42857143 C18.0519481,1.16883117 17.6623377,0.974025974 17.2836364,0.809155844 C16.9076623,0.641623377 16.5243506,0.500974026 16.1346104,0.387012987 C14.5755844,-0.068961039 12.9131818,-0.114285714 11.1554545,0.477922078 C10.5257792,0.646298701 9.90928571,0.855519481 9.30909091,1.10409091 C7.50850649,1.84993506 5.85493506,2.95064935 4.43525974,4.37032468 C1.59590909,7.20961039 0.0322727273,10.9846104 0.0322727273,15 C0.0322727273,19.0153896 1.59597403,22.7904545 4.43525974,25.6296753 C7.27454545,28.469026 11.0496104,30.0326623 15.065,30.0326623 C19.0803896,30.0326623 22.8554545,28.469026 25.6946753,25.6296753 C27.1143506,24.2100649 28.2150649,22.5564935 28.9609091,20.7558442 C29.2095455,20.1556494 29.4187013,19.5390909 29.5857143,18.9099351 C30.1824675,16.7925974 30.0101299,14.6462987 29.2774026,12.6875325 C29.0331818,12.0346104 28.7266234,11.4025325 28.3653247,10.7996104 C28.1733766,10.5022727 27.9766234,10.2062338 27.7716234,9.91616883 C27.7203896,9.84363636 27.6685714,9.77149351 27.6161039,9.69980519 C27.012987,8.96103896 26.2337662,8.37662338 25.4612987,7.85058442 C25.3742857,7.80201299 25.2868831,7.75383117 25.1999351,7.70545455 C25.026039,7.60863636 24.854026,7.51077922 24.6876623,7.40798701 C24.4168831,7.25987013 24.1430519,7.11103896 23.8681818,6.95863636 Z M15.0649351,29.5781169 C7.02655844,29.5781169 0.486818182,23.0383766 0.486818182,15 C0.486818182,9.37311688 3.6912987,4.48058442 8.37116883,2.05149351 C9.03974026,1.70448052 9.73837662,1.40772727 10.4621429,1.1662987 C12.3271429,0.48512987 14.0668182,0.436883117 15.6951948,0.826818182 C16.1022727,0.924285714 16.5024675,1.05012987 16.8951299,1.20525974 C17.9220779,1.55844156 18.7012987,2.33766234 19.4155844,3.11688312 C20.3896104,4.35064935 21.2337662,5.51948052 22.4675325,6.49350649 C23.4415584,7.22402597 24.4026623,7.85590909 25.3274675,8.55824675 C25.4199351,8.62850649 25.512013,8.69941558 25.6033117,8.77149351 C25.974026,9.09090909 26.3636364,9.35064935 26.6846753,9.68571429 C26.772987,9.76720779 26.8607792,9.85025974 26.9480519,9.93506494 C27.3383117,10.314026 27.5377922,10.604026 27.7922078,10.9090909 C29.7998052,13.3161688 29.9350649,16.6883117 28.8986364,19.6028571 C28.6572078,20.3265584 28.3604545,21.0252597 28.0134416,21.6937662 C25.5843506,26.3736364 20.6918182,29.5781169 15.0649351,29.5781169 Z" id="Shape"></path>
            <path d="M14.9421429,14.6501299 C14.5454545,14.6103896 14.5454545,15.1298701 14.8051948,15.3246753 C15,15.4545455 15.3896104,15.3896104 15.3303247,15.0407143 C15.3167532,14.8338961 15.142987,14.658961 14.9421429,14.6501299 Z" id="Shape"></path>
        </g>
    </g>
</svg>